<?xml version="1.0" standalone="no"?>
<!DOCTYPE svg PUBLIC "-//W3C//DTD SVG 20010904//EN"
 "http://www.w3.org/TR/2001/REC-SVG-20010904/DTD/svg10.dtd">
<svg version="1.0" xmlns="http://www.w3.org/2000/svg"
 width="700.000000pt" height="700.000000pt" viewBox="0 0 700.000000 700.000000"
 preserveAspectRatio="xMidYMid meet">
<metadata>
Created by potrace 1.11, written by Peter Selinger 2001-2013
</metadata>
<g transform="translate(0.000000,700.000000) scale(0.100000,-0.100000)"
fill="#000000" stroke="none">
<path d="M3897 6994 c-1 -1 -40 -5 -87 -8 -149 -13 -211 -22 -390 -60 -107
-22 -297 -78 -365 -106 -11 -4 -47 -18 -80 -30 -176 -66 -528 -261 -660 -366
-16 -14 -35 -28 -40 -32 -110 -80 -166 -133 -629 -593 l-430 -428 1446 -1446
1446 -1446 42 53 c249 314 567 534 950 658 52 17 110 33 130 36 19 3 38 8 41
10 4 2 24 6 44 10 21 3 46 7 55 9 121 23 359 33 480 20 107 -12 205 -26 245
-37 22 -5 47 -11 55 -13 147 -28 363 -117 543 -223 50 -29 91 -51 92 -50 3 4
58 157 84 235 37 111 80 303 105 473 15 104 21 206 21 395 0 239 -9 363 -40
515 -3 14 -9 48 -15 75 -55 283 -189 642 -321 859 -10 17 -22 38 -26 46 -18
41 -160 247 -233 340 -46 58 -149 170 -229 250 -241 240 -465 400 -776 556
-110 56 -355 154 -383 154 -10 0 -22 4 -27 9 -10 9 -256 73 -325 85 -19 3 -46
8 -60 11 -42 8 -139 21 -240 31 -59 6 -417 13 -423 8z"/>
<path d="M767 4827 c-70 -122 -119 -245 -157 -392 -38 -147 -45 -209 -45 -405
0 -272 40 -451 158 -700 91 -193 174 -298 493 -620 150 -151 273 -279 274
-283 1 -7 -268 -244 -670 -590 -58 -50 -110 -96 -116 -101 -10 -10 -64 -57
-144 -126 -14 -12 -115 -99 -224 -193 -261 -225 -297 -261 -320 -326 -21 -60
-18 -143 9 -205 21 -51 787 -823 848 -856 47 -25 146 -35 199 -19 48 13 118
65 160 118 21 25 48 57 60 71 13 14 66 75 118 135 52 61 99 115 105 121 5 6
30 35 55 64 25 29 50 58 55 64 6 6 35 40 65 76 30 36 58 67 61 70 3 3 34 39
69 80 35 41 68 80 74 85 6 6 47 53 91 105 44 52 89 104 100 116 11 12 31 34
44 50 70 84 206 240 216 249 6 6 24 27 39 48 16 21 33 36 37 35 5 -2 134 -127
286 -279 153 -152 305 -297 338 -322 33 -26 65 -51 70 -55 6 -5 46 -30 89 -56
170 -103 388 -185 566 -211 25 -4 57 -9 72 -11 l28 -4 -31 82 c-84 228 -118
437 -114 693 2 99 6 194 9 210 3 17 8 44 11 60 11 63 15 82 36 167 l23 87
-1506 1506 -1506 1505 -25 -43z"/>
<path d="M5618 2625 c-2 -2 -37 -6 -78 -9 -388 -34 -777 -286 -982 -636 -40
-69 -101 -199 -113 -240 0 -3 -8 -30 -17 -60 -10 -30 -19 -66 -22 -80 -3 -14
-7 -36 -10 -50 -25 -112 -26 -349 -2 -456 2 -12 7 -37 10 -56 9 -60 57 -199
94 -278 39 -83 92 -173 104 -178 4 -2 8 -8 8 -14 0 -5 26 -42 59 -81 248 -304
605 -477 991 -481 161 -1 245 8 360 39 529 143 898 569 970 1120 8 63 5 302
-4 345 -31 142 -42 186 -68 254 -144 392 -468 694 -869 809 -46 14 -104 27
-129 31 -25 3 -58 9 -75 12 -30 5 -223 13 -227 9z"/>
</g>
</svg>
